<?xml version="1.0" standalone="no"?><!DOCTYPE svg PUBLIC "-//W3C//DTD SVG 1.1//EN" "http://www.w3.org/Graphics/SVG/1.1/DTD/svg11.dtd"><svg t="1746602626653" class="icon" viewBox="0 0 1024 1024" version="1.1" xmlns="http://www.w3.org/2000/svg" p-id="5978" data-spm-anchor-id="a313x.search_index.0.i8.150b3a81Sj8PrQ" xmlns:xlink="http://www.w3.org/1999/xlink" width="200" height="200"><path d="M1011.2 871.68H12.8c-0.64 0-1.28-0.64-1.28-1.28s0.64-1.28 1.28-1.28h998.4c0.64 0 1.28 0.64 1.28 1.28s-0.64 1.28-1.28 1.28zM165.76 657.92c-7.04 0-12.8-3.84-15.36-10.24l-21.76-49.28c-3.84-8.32 0-18.56 8.32-22.4 11.52-7.68 23.68-14.08 35.84-19.84 9.6-3.84 19.2-7.68 28.8-10.88l1.28-0.64 37.12 83.2-1.28 0.64c-8.96 5.12-17.92 9.6-26.88 14.08-12.8 5.76-25.6 10.24-39.04 13.44-1.92 1.92-4.48 1.92-7.04 1.92z m35.84-108.8c-8.96 3.2-18.56 6.4-26.88 10.24-12.16 5.76-24.32 12.16-35.84 19.84-7.04 3.2-10.24 11.52-7.04 17.92L153.6 646.4c3.2 7.04 11.52 10.24 17.92 7.04 13.44-3.2 26.24-7.68 39.04-13.44 8.96-3.84 17.28-8.32 25.6-13.44l-34.56-77.44z m46.08 74.88l-0.64-1.92L211.2 542.72l1.92-0.64 1.28-0.64c8.32-3.84 18.56 0 22.4 8.96l21.76 49.28c3.84 8.32 0 18.56-8.32 22.4l-1.28 0.64-1.28 1.28z m-32-79.36l33.28 74.24c7.04-3.2 10.24-11.52 7.04-18.56l-21.76-49.28c-3.2-6.4-11.52-9.6-18.56-6.4zM213.7792 676.256c-1.7536 0.7808-2.4 2.4704-1.6192 4.224l59.1296 132.7872c0.7808 1.76 2.4704 2.4064 4.224 1.6256l40.9472-18.24c1.7536-0.7744 2.4064-2.464 1.6256-4.224l-59.136-132.7808c-0.7744-1.76-2.4704-2.4064-4.224-1.6256l-40.9472 18.24m-1.2992-2.9312l40.9472-18.2336c3.5072-1.5616 6.8928-0.2624 8.448 3.2448l59.136 132.7872c1.5616 3.5072 0.2624 6.8928-3.2448 8.448l-40.9472 18.24c-3.5136 1.5616-6.8928 0.2624-8.4544-3.2448l-59.136-132.7872a6.4192 6.4192 0 0 1 3.2512-8.448z" fill="#d7cf0d" p-id="5979"></path><path d="M220.2304 698.6176l2.0864 4.6784 46.7968-20.8384-2.0864-4.6784-46.7968 20.8384m-4.224-1.6256l52.6464-23.4432 4.6912 10.5344-52.6464 23.4432-4.6912-10.5344zM231.168 723.1872l2.0928 4.6784 46.7968-20.8384-2.0864-4.6784-46.7968 20.8384m-4.224-1.6256l52.64-23.4432 4.6912 10.528-52.6464 23.4432-4.6912-10.528zM240.5504 744.2432l2.0864 4.6784 46.7968-20.8384-2.0864-4.672-46.7968 20.832m-4.224-1.6192l52.6464-23.4432 4.6848 10.528-52.6464 23.4432-4.6848-10.528zM249.9264 765.3056l2.0864 4.672 46.7968-20.832-2.0864-4.6784-46.7968 20.8384m-4.224-1.6256l52.6464-23.4432 4.6848 10.528-52.6464 23.4432-4.6848-10.528zM260.864 789.8688l2.0864 4.6848 46.7968-20.8384-2.08-4.6848-46.7968 20.8384m-4.224-1.6192l52.64-23.4432 4.6912 10.528-52.6464 23.4432-4.6912-10.528zM275.2 472.96c-1.92 0-3.84 1.28-5.12 3.2-23.04 35.84-19.84 82.56 8.32 114.56 14.72 17.28 35.2 28.16 57.6 31.36h2.56c1.28 0 1.28 0 3.2-1.28v-1.92l-63.36-142.72c-1.28-1.28-2.56-3.2-3.2-3.2m0-3.2c3.84 0 5.76 4.48 5.76 4.48l63.36 142.72s1.28 3.84-1.28 5.76c-2.56 1.92-3.2 2.56-8.32 1.92-53.76-7.68-90.88-58.24-82.56-112 1.92-14.08 7.04-27.52 14.72-39.04 1.92-1.92 5.12-3.84 8.32-3.84zM90.2656 398.8032c-1.7536 0.7808-2.4 2.4704-1.6192 4.224l59.1296 132.7872c0.7808 1.76 2.4704 2.4064 4.224 1.6256l40.9472-18.24c1.7536-0.7744 2.4064-2.464 1.6256-4.224l-59.136-132.7808c-0.7744-1.76-2.4704-2.4064-4.224-1.6256l-40.9472 18.24m-1.2992-2.9312l40.9472-18.2336c3.5072-1.5616 6.8928-0.2624 8.448 3.2448l59.136 132.7872c1.5616 3.5072 0.2624 6.8928-3.2448 8.448l-40.9472 18.24c-3.5136 1.5616-6.8928 0.2624-8.4544-3.2448l-59.136-132.7872a6.4192 6.4192 0 0 1 3.2512-8.448z" fill="#d7cf0d" p-id="5980"></path><path d="M96.7168 421.1648l2.0864 4.6784 46.7968-20.8384-2.0864-4.6784-46.7968 20.8384m-4.224-1.6256l52.6464-23.4432 4.6912 10.5344-52.6464 23.4432-4.6912-10.528zM107.6608 445.7344l2.0864 4.6784 46.7968-20.8384-2.0864-4.6784-46.7968 20.8384m-4.224-1.6256l52.64-23.4432 4.6912 10.528-52.6464 23.4432-4.6912-10.528zM117.0368 466.7904l2.0864 4.6784 46.7968-20.8384-2.0864-4.672-46.7968 20.832m-4.224-1.6192l52.6464-23.4432 4.6848 10.528-52.6464 23.4432-4.6848-10.528zM126.4128 487.8528l2.0864 4.672 46.7968-20.832-2.0864-4.6784-46.7968 20.8384m-4.224-1.6256l52.6464-23.4432 4.6848 10.528-52.6464 23.4432-4.6848-10.528zM137.3568 512.416l2.08 4.6848L186.24 496.256l-2.08-4.6848-46.7968 20.8384m-4.224-1.6192l52.64-23.4432 4.6912 10.528-52.6464 23.4432-4.6912-10.528zM225.28 671.36l-0.64-1.28L211.2 640l1.28-0.64c3.2-1.28 7.04-3.2 10.24-5.12l1.28-0.64 14.08 32-12.8 5.76z m-9.6-30.08l11.52 25.6 7.68-3.2-11.52-25.6c-2.56 1.28-5.12 1.92-7.68 3.2z m-40.32-82.56l-0.64-1.28-11.52-25.6 13.44-5.76 12.16 27.52-1.28 0.64c-3.84 1.28-7.04 2.56-10.88 4.48h-1.28z m-7.68-25.6l9.6 21.12c2.56-1.28 5.12-1.92 7.68-3.2l-9.6-21.76-7.68 3.84zM153.6 653.44h2.56c-1.92-1.28-3.2-3.2-3.84-5.76l-7.68-17.28c-5.76 5.12-5.76 13.44-0.64 19.2 1.92 1.92 5.76 3.84 9.6 3.84m-16-35.2h1.28l-8.96-20.48c-0.64-1.28-0.64-1.92-1.28-3.2-5.76 5.12-6.4 13.44-1.28 19.2 3.2 3.2 6.4 4.48 10.24 4.48m16 38.4c-8.96 0-16.64-7.68-16.64-16.64 0-4.48 1.92-8.96 5.12-12.16l3.2-3.2 9.6 21.76c0.64 1.92 1.92 3.2 3.2 4.48l5.12 4.48-6.4 1.28H153.6z m-16-35.2c-8.96 0-16.64-7.68-16.64-16.64 0-4.48 1.92-9.6 5.76-12.16l3.84-3.84 1.28 5.12c0 0.64 0.64 1.92 0.64 2.56l10.88 24.32-4.48 0.64h-1.28zM318.72 560.64l-2.56-1.92L339.2 531.2h-34.56v-3.2H345.6l-1.92 2.56-24.96 30.08z" fill="#d7cf0d" p-id="5981"></path><path d="M339.84 528a5.12 5.12 0 1 0 10.24 0 5.12 5.12 0 1 0-10.24 0Z" fill="#d7cf0d" p-id="5982"></path><path d="M200.96 529.92c3.2-1.28 6.4 0 7.68 3.2l45.44 102.4c1.28 3.2 0 6.4-3.2 7.68-3.2 1.28-6.4 0-7.68-3.2l-44.8-102.4c-1.28-3.2 0-6.4 2.56-7.68z" fill="#d7cf0d" p-id="5983"></path><path d="M200.32 528.64c3.84-1.92 8.32 0 9.6 3.84l45.44 102.4c1.92 3.84 0 8.32-3.84 9.6-3.84 1.92-8.32 0-9.6-3.84l-45.44-102.4c-1.28-3.84 0-8.32 3.84-9.6z m50.56 112.64c1.92-0.64 3.2-3.2 1.92-5.76l-45.44-102.4c-0.64-1.92-3.2-3.2-5.12-2.56-1.92 0.64-3.2 3.2-2.56 5.12v0.64l45.44 102.4c0.64 2.56 3.2 3.2 5.76 2.56zM240.64 560.64l-1.28-2.56 16-8.96 1.28 2.56-16 8.96zM256.64 596.48l-1.28-3.2 18.56-5.76 1.28 3.2-18.56 5.76zM364.8 492.8c5.12-2.56 13.44 12.16 17.28 21.12 3.84 8.96 9.6 24.96 3.84 27.52-5.12 2.56-13.44-12.16-17.28-21.12-3.84-9.6-9.6-25.6-3.84-27.52z m20.48 45.44c0-0.64 0.64-2.56 0-7.04-1.28-5.76-3.2-10.88-5.12-16-1.92-5.12-5.12-10.24-8.32-14.72-3.2-3.84-4.48-5.12-5.12-5.12 0 0.64-0.64 2.56 0 7.04 1.28 5.76 3.2 10.88 5.12 16 1.92 5.12 5.12 10.24 8.32 14.72 2.56 3.84 4.48 5.12 5.12 5.12zM383.36 469.12c3.2-1.28 7.04 1.28 12.8 8.32 5.76 7.68 10.24 16 14.08 24.96 3.84 8.96 7.04 17.92 8.96 27.52 1.92 8.96 1.28 14.08-1.92 15.36-3.2 1.28-7.04-1.28-12.8-8.32-5.76-7.68-10.24-16-14.08-24.96-3.84-8.96-7.04-17.92-8.96-27.52-1.92-8.32-1.28-13.44 1.92-15.36zM416 542.72c0.64-0.64 1.92-3.2 0-11.52-1.92-8.96-5.12-17.92-8.96-26.88-3.84-8.32-8.32-16.64-14.08-24.32-5.12-7.04-8.32-7.68-8.96-7.68s-1.92 3.2 0 11.52c1.92 8.96 5.12 17.92 8.96 26.88 3.84 8.32 8.32 16.64 14.08 24.32 5.12 7.04 8.32 7.68 8.96 7.68zM403.84 439.04c3.84-1.92 9.6 2.56 17.28 12.16 7.68 10.88 14.72 23.04 20.48 35.84 5.76 12.8 10.24 25.6 13.44 39.04 2.56 12.16 1.28 19.2-2.56 21.12s-9.6-2.56-17.28-12.16c-7.68-10.88-14.72-23.04-20.48-35.84-5.76-12.8-10.24-25.6-13.44-39.04-1.92-12.16-1.28-19.2 2.56-21.12zM450.56 544c1.92-0.64 3.2-5.76 0.64-17.28-3.2-13.44-7.04-26.24-12.8-38.4-5.12-12.16-12.16-24.32-19.84-35.2-7.04-9.6-11.52-12.16-13.44-10.88-1.92 0.64-3.2 5.76-0.64 17.28 3.2 13.44 7.04 26.24 12.8 38.4 5.12 12.16 12.16 24.32 19.84 35.2 7.68 8.96 12.16 11.52 13.44 10.88z" fill="#d7cf0d" p-id="5984"></path><path d="M572.8 618.24c-61.44 0-111.36-49.28-112-110.72 0.64-61.44 50.56-111.36 112.64-110.72 60.8 0.64 110.72 49.92 110.72 110.72 0 61.44-50.56 110.72-111.36 110.72z m-0.64-78.72c-5.76 0-10.24 4.48-10.24 10.24 0 5.76 4.48 10.24 10.24 10.24 5.76 0 10.24-4.48 10.24-10.24 0.64-5.76-4.48-10.24-10.24-10.24z m17.92-34.56v17.92c5.12 1.92 9.6 4.48 13.44 8.32 0.64 0.64 1.28 0.64 1.92 0.64 0.64 0 1.28 0 1.92-0.64l8.32-8.32c0.64-0.64 0.64-1.28 0.64-1.92 0-0.64 0-1.28-0.64-1.92-7.68-6.4-16.64-11.52-25.6-14.08z m-34.56 0c-9.6 2.56-17.92 7.68-25.6 14.08-0.64 0.64-0.64 1.28-0.64 1.92 0 0.64 0 1.28 0.64 1.92l8.32 8.32c0.64 0.64 1.28 0.64 1.92 0.64 0.64 0 1.28 0 1.92-0.64 3.84-3.84 8.32-6.4 13.44-8.32v-17.92z m17.28-49.92c-3.84 0-7.68 3.2-7.68 7.68v61.44c0 3.84 3.2 7.68 7.68 7.68 3.84 0 7.68-3.2 7.68-7.68v-61.44c-0.64-4.48-3.84-7.68-7.68-7.68z m17.28 14.72v17.28c14.08 3.2 26.88 9.6 37.76 19.84 0.64 0.64 1.28 0.64 1.92 0.64 0.64 0 1.28 0 1.92-0.64l7.68-8.32c0.64-0.64 0.64-1.28 0.64-1.92 0-0.64 0-1.28-0.64-1.92-14.08-12.8-31.36-21.76-49.28-24.96z m-34.56 0c-18.56 3.84-35.2 12.16-49.28 24.96-0.64 0-0.64 0.64-0.64 1.28s0 1.28 0.64 1.92l7.68 8.32c0.64 0.64 1.28 0.64 1.92 0.64 0.64 0 1.28 0 1.92-0.64 10.88-9.6 23.68-16.64 37.76-19.84v-16.64z" fill="#d7cf0d" p-id="5985"></path><path d="M574.72 284.8c6.4 0 12.8 0 19.2 0.64v3.2c-5.12 0-10.24-0.64-15.36-0.64h-4.48l0.64-3.2z m38.4 3.2c6.4 1.28 12.8 2.56 19.2 4.48l-0.64 3.2c-6.4-1.92-12.16-3.2-18.56-4.48V288z m37.76 10.24c5.76 2.56 12.16 5.12 17.92 7.68l-1.28 3.2c-1.28-0.64-1.92-0.64-3.2-1.28h-2.56l-0.64-1.28h-0.64c-1.28-0.64-2.56-1.28-3.84-1.28l-5.76-7.04z m35.2 16.64c5.76 3.2 10.88 7.04 16 10.88l-1.92 2.56-11.52-7.68-0.64-0.64h-0.64l-0.64-0.64-2.56-1.28 1.92-3.2z m31.36 23.04c5.12 4.48 9.6 8.96 14.08 13.44l-2.56 1.92-0.64-0.64-0.64-0.64-0.64-0.64c-2.56-2.56-5.76-5.76-8.96-8.32l-0.64-0.64h-0.64l0.64-4.48z m27.52 28.16l11.52 15.36-2.56 1.92c-0.64-0.64-0.64-1.28-1.28-1.92v-0.64l-1.28-1.28-5.76-7.68-0.64-5.76z m21.76 32c3.2 5.76 5.76 11.52 8.96 17.28l-3.2 1.28-1.92-3.84-5.76-11.52 1.92-3.2z m16 35.2c1.92 6.4 3.84 12.16 5.12 18.56l-3.2 0.64c-0.64-3.2-1.28-5.76-2.56-8.96V441.6c-0.64-2.56-1.28-5.12-2.56-7.68l3.2-0.64z m8.96 38.4c1.28 6.4 1.92 12.8 1.92 19.2h-3.2l-1.92-19.2h3.2z m-0.64 38.4h3.2c0 6.4-0.64 12.8-1.28 19.2l-3.2-0.64v-3.2c0-3.2 0.64-5.76 0.64-8.96v-3.2c0-0.64 0-1.92 0.64-3.2z m-4.48 38.4l3.2 0.64c-1.28 6.4-3.2 12.8-5.12 18.56l-3.2-0.64 3.84-13.44c0.64-2.56 0.64-3.84 1.28-5.12z m-11.52 36.48l3.2 1.28c-2.56 5.76-5.12 12.16-8.32 17.92l-2.56-1.28c0.64-1.92 1.92-3.84 2.56-5.76v-0.64c1.92-4.48 3.84-8.32 5.12-11.52z m-17.28 33.92l2.56 1.92c-3.2 5.76-7.04 10.88-10.88 16l-2.56-1.92c3.84-5.12 7.68-10.24 10.88-16z m-23.04 30.72l2.56 1.92c-4.48 4.48-8.96 9.6-13.44 14.08l-1.92-2.56c3.84-3.2 7.04-7.04 10.88-10.88l0.64-0.64 1.28-1.92z m-28.16 26.24l1.92 2.56c-5.12 3.84-10.24 7.68-16 10.88l-1.92-2.56c1.28-0.64 1.92-1.28 3.2-1.92l0.64-1.28 0.64-0.64h0.64c1.92-1.28 3.84-2.56 5.12-3.84l5.76-3.2z m-32.64 20.48l1.28 2.56c-5.76 3.2-11.52 5.76-17.92 8.32l-1.28-3.2h1.28c7.68-3.2 12.16-5.12 16.64-7.68z m-35.2 14.72l0.64 3.2c-6.4 1.92-12.8 3.84-18.56 5.12l-0.64-3.2c4.48-0.64 8.96-1.92 12.8-3.2 3.2-1.28 4.48-1.92 5.76-1.92z m-37.76 7.68l0.64 3.2c-6.4 0.64-12.8 1.28-19.2 1.28v-3.2c4.48 0 8.32-0.64 12.8-0.64H597.12c1.28 0 2.56-0.64 3.84-0.64z m-57.6-0.64l15.36 1.92H562.56v3.2l-19.2-1.92v-3.2z m-37.12-8.96c5.76 1.92 12.16 3.84 18.56 5.12l-0.64 3.2c-6.4-1.28-12.8-3.2-18.56-5.12l0.64-3.2z m-35.2-15.36c1.28 0.64 2.56 1.28 4.48 2.56l0.64 0.64h0.64c1.92 1.28 4.48 1.92 6.4 3.2h0.64l1.92 0.64 0.64 3.2c-5.76-2.56-11.52-5.76-17.28-8.32l1.92-1.92z m-32-21.12l15.36 11.52-1.92 2.56c-5.12-3.84-10.88-7.68-16-11.52l2.56-2.56z m-27.52-26.24c3.2 3.84 7.04 7.68 10.88 11.52l0.64 0.64-1.92 2.56c-4.48-4.48-8.96-8.96-13.44-14.08l3.84-0.64z m-22.4-31.36c1.92 2.56 3.2 5.76 5.12 8.32l0.64 0.64c1.28 1.92 2.56 3.84 4.48 5.76l-2.56 3.2c-3.84-5.12-7.68-10.88-10.88-16l3.2-1.92z m-16.64-34.56c1.92 5.12 3.84 10.24 6.4 14.72v0.64l-2.56 1.28c-2.56-5.76-5.12-12.16-7.68-17.92l3.84 1.28zM362.24 544c0 1.28 0.64 1.92 0.64 3.2v0.64c1.28 4.48 1.92 9.6 3.2 14.08l-3.2 1.28c-1.92-6.4-3.2-12.8-4.48-19.2h3.84z m-3.84-38.4V524.16h-3.2c-0.64-6.4-0.64-12.8-1.28-19.2l4.48 0.64z m0-39.04l3.2 0.64c-1.28 6.4-1.92 12.8-2.56 19.2h-3.2c0.64-7.04 1.28-13.44 2.56-19.84z m10.24-37.12l3.2 1.28c0 0.64-0.64 1.28-0.64 2.56l-3.2-0.64c-3.84 8.96-1.92 2.56 0.64-3.2z m16-35.84l2.56 1.92c-1.28 2.56-3.2 5.12-4.48 8.32v0.64l-1.28 0.64c-0.64 1.92-1.92 3.84-2.56 5.76l-3.2-1.28c3.2-4.48 5.76-10.24 8.96-16z m23.04-31.36l2.56 1.92c-1.92 2.56-3.84 4.48-5.76 7.04l-0.64 0.64v0.64l-0.64 0.64c-0.64 0.64-1.28 1.28-1.92 2.56l-0.64 0.64-2.56-1.92c1.28-1.92 5.12-7.04 9.6-12.16z m27.52-27.52l1.92 2.56-1.92 1.28h-0.64l-0.64 1.28-5.12 4.48-1.28 1.28-3.84 3.84-2.56-2.56c3.84-3.84 8.96-7.68 14.08-12.16z m32-21.76l1.28 2.56c-5.76 3.2-10.88 6.4-16 10.24l-1.92-2.56c5.76-3.84 10.88-7.04 16.64-10.24z m35.2-16l1.28 3.2c-5.76 1.92-12.16 4.48-17.92 7.04l-1.28-3.2c5.76-2.56 12.16-5.12 17.92-7.04z m37.76-9.6l0.64 3.2c-2.56 0.64-5.76 0.64-8.32 1.28H530.56c-1.92 0.64-4.48 1.28-6.4 1.28l-0.64-2.56c3.84-0.64 10.24-1.92 16.64-3.2z m34.56-2.56v3.2h-8.32-7.04v-3.2h15.36zM225.92 334.08c-0.64 1.92-1.28 3.84-2.56 5.76-1.28 2.56-3.84 8.32-5.12 10.24h14.72c-1.28-1.92-3.84-7.04-5.12-9.6 0-2.56-1.28-4.48-1.92-6.4m-5.76 18.56c1.28 1.92 2.56 4.48 3.84 7.04 0.64 1.92 1.92 3.84 2.56 5.76 0.64-1.92 1.28-3.84 2.56-5.76 1.28-2.56 3.84-8.32 5.12-10.24h-14.72m6.4-24.96c1.28 5.12 3.2 9.6 5.12 14.08 1.92 3.84 3.84 7.68 6.4 10.88h-23.68c2.56-3.84 4.48-7.68 6.4-11.52 2.56-3.84 4.48-8.96 5.76-13.44z m-11.52 24.96h23.68c-2.56 3.84-4.48 7.68-6.4 11.52-3.2 6.4-5.12 13.44-5.12 13.44-1.28-4.48-3.2-8.96-5.12-13.44-2.56-3.84-4.48-7.68-7.04-11.52zM408.32 788.48c-0.64 1.92-1.28 3.84-2.56 5.76-1.28 2.56-3.84 8.32-5.12 10.24H416c-1.28-1.92-3.84-7.04-5.12-9.6-0.64-2.56-1.92-4.48-2.56-6.4m-5.76 19.2c1.28 1.92 2.56 4.48 3.84 7.04 0.64 1.92 1.92 3.84 2.56 5.76 0.64-1.92 1.28-3.84 2.56-5.76 1.28-2.56 3.84-8.32 5.12-10.24h-14.72m6.4-25.6c1.28 5.12 3.2 9.6 5.12 14.08 1.92 3.84 3.84 7.68 6.4 10.88H396.8c2.56-3.84 4.48-7.68 6.4-11.52 1.92-3.84 3.84-8.32 5.12-13.44z m-11.52 25.6h23.68c-2.56 3.84-4.48 7.68-6.4 11.52-3.2 6.4-5.12 13.44-5.12 13.44-1.28-4.48-3.2-8.96-5.12-13.44-2.56-4.48-4.48-8.32-7.04-11.52z" fill="#d7cf0d" p-id="5986"></path><path d="M599.68 798.08c-24.96 0-49.28-3.2-72.96-9.6s-46.72-15.36-67.84-27.52c36.48 16 75.52 24.32 115.2 24.32 37.76 0 75.52-7.68 110.72-22.4 33.92-14.08 64.64-34.56 90.24-60.8 26.24-25.6 46.72-56.32 60.8-89.6 14.72-34.56 22.4-72.32 22.4-110.08 0-37.76-7.68-74.88-22.4-110.08-14.08-33.28-35.2-64-60.8-89.6-17.92-17.92-38.4-33.28-60.16-46.08 32 14.08 61.44 33.92 85.76 58.88 26.24 25.6 46.72 56.32 60.8 89.6 14.72 34.56 22.4 72.32 22.4 110.08 0 37.76-7.68 74.88-22.4 110.08-14.08 33.28-35.2 64-60.8 89.6-26.24 25.6-56.96 46.08-90.24 60.8-35.2 15.36-72.96 22.4-110.72 22.4z" fill="#d7cf0d" p-id="5987"></path><path d="M574.08 788.48c-6.4 0-12.8 0-19.2-0.64v-3.2c5.12 0.64 10.88 0.64 16 0.64h3.2v3.2z m-39.04-2.56c-6.4-0.64-12.8-1.92-19.2-3.2l0.64-3.2c5.12 1.28 10.88 1.92 16.64 2.56H535.04v3.84z m-37.76-7.68c-6.4-1.92-12.16-3.84-18.56-5.76l1.28-3.2c1.28 0.64 2.56 0.64 3.84 1.28 4.48 1.28 9.6 3.2 14.08 4.48l-0.64 3.2z m-36.48-12.8c-5.76-2.56-12.16-5.12-17.92-8.32l1.28-2.56c3.84 1.92 8.32 3.84 12.8 5.76 1.28 0.64 1.92 0.64 3.2 1.28l0.64 3.84z m-35.2-17.28c-3.84-1.92-7.04-4.48-10.88-7.04l-5.76-3.84 1.92-2.56 1.92 1.28c1.92 1.28 4.48 2.56 6.4 4.48 1.28 0.64 1.92 1.28 3.2 1.92l3.2 5.76z m-31.36-22.4c-5.12-3.84-10.24-8.32-14.72-12.8l1.92-2.56c0.64 0.64 1.92 1.28 2.56 2.56l0.64 0.64c1.28 0.64 1.92 1.92 3.2 2.56l6.4 9.6z m-28.8-25.6c-3.84-3.84-7.68-8.32-10.88-12.16-0.64-0.64-1.28-1.28-1.92-2.56l2.56-1.92v0.64l1.28 1.28v0.64l0.64 0.64 1.92 1.92 0.64 0.64 0.64 0.64V691.84l0.64 0.64 4.48 7.68z m-24.96-30.08c-3.84-5.12-7.68-10.88-10.88-16l2.56-1.92 1.28 1.28c2.56 4.48 5.76 8.32 8.96 12.8l-1.92 3.84z m-21.12-32.64c-3.2-5.76-5.76-11.52-8.32-17.28l3.2-1.28c1.92 4.48 4.48 8.96 6.4 13.44v0.64l-1.28 4.48z m-30.08-145.28h-3.2c0-6.4 0.64-12.8 1.28-19.2l3.2 0.64c-0.64 4.48-0.64 8.96-1.28 13.44v5.12z m3.84-38.4l-3.2-0.64 3.84-19.2 3.2 0.64c-0.64 1.92-0.64 3.2-1.28 5.12-0.64 5.76-1.28 10.24-2.56 14.08z m9.6-37.12l-3.2-0.64c1.92-6.4 4.48-12.16 6.4-18.56l3.2 1.28c-1.28 3.2-2.56 7.04-3.84 10.24l-2.56 7.68z m14.08-35.2l-3.2-1.28c2.56-5.76 5.76-11.52 8.96-17.28l2.56 1.28c-0.64 0.64-0.64 1.92-1.28 2.56l-7.04 14.72z m19.2-33.92l-2.56-1.92c3.84-5.12 7.68-10.88 11.52-16l2.56 1.92c-8.32 12.16-10.24 14.08-11.52 16z m23.68-30.08l-2.56-1.92c4.48-5.12 8.96-9.6 13.44-14.08l2.56 2.56-3.2 3.2c-2.56 2.56-5.12 5.12-7.04 7.68l-3.2 2.56z m26.88-26.88l-1.92-2.56c5.12-4.48 10.24-8.32 15.36-12.16l1.92 2.56c-5.12 3.84-10.24 7.68-15.36 12.16z m30.72-23.04l-1.92-2.56c5.12-3.84 10.88-7.04 16.64-10.24l1.28 2.56-16 10.24z m33.28-19.2l-1.28-3.2c4.48-1.92 8.96-4.48 13.44-5.76l3.84-1.92 1.28 3.2h-2.56c-7.04 4.48-10.88 6.4-14.72 7.68z m35.84-14.08l-1.28-3.2c6.4-1.92 12.16-3.84 18.56-5.12l0.64 3.2c-5.76 1.28-11.52 3.2-17.92 5.12z m37.12-8.96l-0.64-3.2c6.4-1.28 12.8-1.92 19.2-2.56l0.64 3.2c-3.2 0.64-6.4 0.64-9.6 1.28-5.12 0-7.04 0.64-9.6 1.28z m38.4-4.48V217.6h19.2v3.2h-19.2z m57.6 3.84h-1.28c-3.2-0.64-5.76-0.64-8.96-0.64v-3.2c6.4 0.64 12.8 1.28 19.2 2.56l-8.96 1.28z m37.12 8.32c-5.12-1.28-10.24-3.2-15.36-4.48l-1.92-0.64 0.64-3.2c6.4 1.28 12.8 3.2 18.56 5.12l-1.92 3.2z m35.84 13.44l-1.28-0.64c-1.92-0.64-3.2-1.28-5.12-1.92-1.92-0.64-4.48-1.92-6.4-2.56l-1.28-0.64 1.28-3.2c3.2 1.28 6.4 2.56 10.24 3.84 2.56 1.28 5.12 2.56 7.68 3.2l-5.12 1.92z m33.92 17.92l-1.28-0.64-1.28-0.64H721.92L710.4 256l1.28-2.56c5.76 3.2 11.52 6.4 16.64 9.6l-1.92 1.28z m30.72 23.04l-0.64-0.64h-1.28l-1.28-0.64c-1.92-1.28-3.84-3.2-5.76-4.48l-0.64-0.64 1.92-2.56c5.12 3.84 10.24 7.68 15.36 12.16l-7.68-3.2z m28.16 26.24l-0.64-0.64-1.92-1.92-3.2-3.2-1.92-1.92-0.64-0.64 1.92-2.56 3.84 3.84 10.24 10.24-7.68-3.2z m23.68 30.08l-0.64-0.64c-1.92-3.2-4.48-6.4-7.04-8.96l-0.64-1.28c-0.64-0.64-1.28-1.92-1.92-2.56l1.28-3.84 11.52 15.36-2.56 1.92z m19.84 33.28c-3.2-5.76-5.76-11.52-8.96-16.64l2.56-1.92 9.6 17.28-3.2 1.28z m14.72 35.2c-1.28-3.2-1.92-5.76-3.2-8.96-1.28-2.56-1.92-5.12-3.2-7.68l3.2-1.28c2.56 5.76 5.12 12.16 7.04 17.92h-3.84z m10.24 37.12c-1.28-5.12-1.92-9.6-3.2-14.72 0-1.28-0.64-1.92-0.64-3.2l3.2-0.64c1.92 6.4 3.2 12.8 4.48 19.2l-3.84-0.64z m4.48 37.76c-0.64-6.4-0.64-12.8-1.92-19.2l3.2-0.64 1.92 19.2-3.2 0.64z m2.56 39.04h-3.2v-1.92c0.64-5.12 0.64-10.88 0.64-16h3.2c0.64 4.48 0 11.52-0.64 17.92z m-5.76 38.4l-3.2-0.64V563.2c1.28-5.76 2.56-12.16 3.2-17.92l3.2 0.64c-0.64 5.76-1.28 12.16-3.2 18.56z m-10.88 37.12l-3.2-1.28 0.64-1.28c0.64-1.92 1.28-3.84 1.92-5.12l3.2 0.64c1.92-5.12 0 0.64-2.56 7.04z m-16 35.2l-2.56-1.28 5.76-11.52 0.64-1.28 3.2 1.28c-0.64 1.28-3.84 7.04-7.04 12.8z m-20.48 33.28l-2.56-1.92c0.64-0.64 1.28-1.28 1.92-2.56 1.92-2.56 3.84-5.76 5.76-8.32l2.56 1.92s-3.84 5.12-7.68 10.88z m-24.96 29.44l-1.92-1.92 0.64-0.64c1.92-2.56 4.48-5.12 6.4-7.04l0.64-0.64 2.56 1.92c0.64-1.28-3.84 3.84-8.32 8.32z m-28.16 26.24l-1.92-2.56h0.64c1.92-1.92 4.48-3.2 6.4-5.12h0.64c1.28-0.64 1.92-1.92 3.2-2.56l1.92 2.56c-1.28-0.64-6.4 3.84-10.88 7.68z m-32 22.4l-1.92-2.56c3.84-2.56 7.04-4.48 10.88-7.04l1.92 2.56s-5.76 3.2-10.88 7.04z m-34.56 17.28l-1.28-3.2c1.28-0.64 3.2-1.28 4.48-1.92 3.2-1.28 7.04-3.2 10.24-5.12l1.28 2.56c-3.2 2.56-8.96 5.12-14.72 7.68z m-36.48 12.8l-0.64-3.2 1.28-0.64c5.12-1.28 9.6-3.2 14.08-4.48l1.28 3.2c-3.84 1.28-10.24 3.2-16 5.12z m-38.4 7.68l-0.64-3.2c1.28 0 2.56-0.64 3.84-0.64l11.52-1.92 0.64 3.2c-2.56 0.64-8.96 1.92-15.36 2.56z m-38.4 2.56v-3.2h18.56v3.2h-18.56z" fill="#d7cf0d" p-id="5988"></path></svg>